# xmcd CD database file
#
# Track frame offsets:
#	190
#	15820
#	44203
#	70288
#	103115
#	123268
#	144058
#	158728
#	193250
#	214398
#	242645
#	269573
#	283583
#
# Disc length: 4121 seconds
#
# Revision: 0
# Processed by: cddbd v1.5.2PL0 Copyright (c) Steve Scherf et al.
# Submitted via: CDex 1.51
#
DISCID=c110170d
DTITLE=Christopher Caliendo - Chamber Jazz
DYEAR=1995
DGENRE=Jazz
TTITLE0=What Better Way To Say I Love You
TTITLE1=All Through The Day
TTITLE2=Falling
TTITLE3=Montana Avenue
TTITLE4=I'll Stop, I'll Look, But I Won't Stare
TTITLE5=In The Moonlight
TTITLE6=L'Ultimo Tango
TTITLE7=New York And All That Jazz
TTITLE8=Teresa's Tango
TTITLE9=Enchanted Pilgrimage
TTITLE10=Somewhere In My Dreams
TTITLE11=Bright And Early
TTITLE12=Chamber Jazz
EXTD=YEAR: 1995
EXTT0=
EXTT1=
EXTT2=
EXTT3=
EXTT4=
EXTT5=
EXTT6=
EXTT7=
EXTT8=
EXTT9=
EXTT10=
EXTT11=
EXTT12=
PLAYORDER=
